<?xml version="1.0" standalone="no"?>
<!DOCTYPE svg PUBLIC "-//W3C//DTD SVG 20010904//EN"
 "http://www.w3.org/TR/2001/REC-SVG-20010904/DTD/svg10.dtd">
<svg version="1.0" xmlns="http://www.w3.org/2000/svg"
 width="512.000000pt" height="512.000000pt" viewBox="0 0 512.000000 512.000000"
 preserveAspectRatio="xMidYMid meet">

<g transform="translate(0.000000,512.000000) scale(0.100000,-0.100000)"
fill="#000000" stroke="none">
<path d="M2460 5113 c-54 -9 -158 -46 -210 -76 -84 -47 -189 -158 -235 -248
l-39 -77 -116 -5 c-166 -7 -277 -52 -399 -162 -49 -45 -122 -152 -146 -217
-17 -45 -19 -47 -72 -58 -203 -42 -394 -230 -449 -441 -22 -82 -22 -225 -1
-306 l16 -62 -82 -83 c-95 -96 -148 -189 -173 -309 -17 -79 -14 -212 6 -281
l11 -38 1984 0 1984 0 11 38 c21 71 24 203 6 286 -28 122 -76 208 -173 304
l-83 83 17 57 c23 78 23 237 -1 317 -63 213 -246 390 -449 436 -52 11 -55 14
-68 53 -22 65 -100 177 -165 234 -110 99 -252 152 -409 152 l-90 1 -35 72
c-50 104 -168 221 -272 271 -115 55 -256 78 -368 59z m729 -1238 c224 -53 397
-264 402 -492 2 -72 -19 -115 -71 -150 -88 -60 -211 3 -225 115 -12 93 -26
126 -74 172 -48 47 -102 70 -163 70 -73 0 -143 73 -143 150 0 55 21 91 75 128
40 27 104 29 199 7z m-1505 -169 c45 -19 78 -68 84 -127 6 -63 -22 -109 -84
-139 -168 -82 -300 164 -138 257 45 26 90 29 138 9z m376 -458 c80 -42 108
-153 54 -218 -85 -100 -232 -70 -265 53 -19 72 11 132 86 171 41 22 73 20 125
-6z"/>
<path d="M680 2438 c0 -7 97 -538 214 -1179 150 -819 219 -1174 231 -1193 10
-15 35 -36 56 -47 36 -18 61 -19 363 -19 l324 0 -5 78 c-3 42 -37 592 -77
1222 l-71 1145 -517 3 c-411 2 -518 0 -518 -10z"/>
<path d="M2020 2429 c0 -32 138 -2273 146 -2357 l6 -72 383 0 384 0 5 53 c7
59 146 2327 146 2370 l0 27 -535 0 -535 0 0 -21z"/>
<path d="M3396 2438 c-2 -7 -36 -544 -75 -1193 -39 -649 -73 -1195 -76 -1213
l-4 -33 337 3 c330 3 338 3 368 25 17 13 38 37 47 55 12 27 437 2315 437 2356
0 18 -1029 18 -1034 0z"/>
</g>
</svg>
